<svg width="41" height="40" viewBox="0 0 41 40" fill="none" xmlns="http://www.w3.org/2000/svg">
    <style>
        path { fill: black; }
        @media (prefers-color-scheme: dark) {
        path { fill: white; }
        }
    </style>
<path d="M15.1678 31.5121C11.2576 31.6274 12.1517 26.5131 12.8233 24.1209C11.3331 27.9834 7.25999 31.9691 3.43323 31.2022C1.61324 30.8366 0.270093 29.2669 0.0515343 27.4231C-0.441215 23.2864 2.71399 17.6039 4.6373 14.5838C7.60175 10.2325 12.104 6.80311 17.6316 6.91438C19.5906 6.93027 21.0967 7.37533 21.804 9.06022C22.0305 9.5331 22.0425 10.4034 21.665 10.7491C21.3868 11.0233 20.9179 11.0352 20.6953 10.6338C19.6741 8.79795 16.9044 9.35428 15.9546 9.68013C12.2829 10.9319 9.73964 15.1759 7.81235 18.5456C7.01362 19.9444 6.33013 21.4068 5.82546 22.9367C5.34066 24.403 4.9949 25.921 4.9949 27.1767C4.83992 29.9663 7.411 29.7875 8.90912 27.892C11.8775 24.2361 13.8445 19.1099 16.0222 14.5957C16.3838 13.8447 17.2143 13.4393 18.0289 13.6062C27.721 15.5852 12.875 17.3456 16.9044 30.4233C17.0156 30.7809 16.8368 31.1664 16.4911 31.3055C16.0818 31.4684 15.5215 31.4883 15.1718 31.5081L15.1678 31.5121Z" fill="black"/>
<path d="M26.9307 31.989C22.4045 32.1638 18.5778 29.3345 18.5062 25.0349C18.4864 22.9089 19.2692 20.8266 20.8587 19.3881C21.4548 19.0742 21.6376 19.5431 21.6297 20.0239C21.6257 20.4332 21.6098 20.8465 21.6495 21.2558C21.7965 22.7261 22.2654 24.5302 22.639 25.7104C23.2907 27.6337 24.61 29.259 26.275 30.1809C28.0632 31.2737 30.4038 30.9836 30.2687 28.492C30.0223 23.9937 25.4127 20.9935 23.9106 16.9085C21.125 9.37416 28.9931 5.69443 35.1961 8.46416C36.1975 6.96604 38.1249 5.88915 39.7064 6.57661C40.2628 6.90246 40.1594 7.45482 39.6865 7.86809C38.6533 8.84962 37.8467 9.77551 37.2625 10.6497C36.1737 12.2631 34.9657 14.4844 34.7471 16.5349C34.7233 16.7654 34.5127 16.9522 34.2862 16.8886C32.7443 16.4634 33.9921 10.9796 34.4412 9.9742C30.8012 7.39123 28.1506 14.0155 29.9706 16.8091C31.0873 19.3802 33.4119 21.7485 34.2226 24.4189C35.8717 29.1557 31.6158 32.2075 26.9307 31.989ZM30.4674 0C30.6263 0 30.7336 0.0278092 30.7852 0.0794685C31.5363 0.695405 32.7404 1.57759 33.6384 2.27697C33.9365 2.50745 34.3378 2.55116 34.6716 2.38824C35.8518 1.81204 37.4493 1.07291 38.5301 0.536452C39.5156 -0.0119311 39.8177 -0.170878 40.7555 0.218553C40.9661 0.309951 41.0058 0.409295 40.8747 0.516587C39.4878 1.56169 35.0809 4.63343 34.1988 4.74867C34.1948 4.74867 34.1868 4.74867 34.1828 4.74867C33.1735 4.82814 32.188 4.39898 31.576 3.58833C31.2899 3.21082 29.5772 1.02126 29.2355 0.556328C29.0527 0.135106 30.1534 0.00397379 30.4674 0Z" fill="black"/>
</svg>
